PathFileType	4	(X/Y/Z)	C:/Users/beibeiliu/ov580/test_trc/capture2\sequence.5_training_dense_left.trc
DataRate	CameraRate	NumFrames	NumMarkers	Units	OrigDataRate	OrigDataStartFrame	OrigNumFrames
120	120	24	19	mm	120	307	350
Frame#	Time	ThumbCMC			ThumbMCP			ThumbIP			ThumbTip			IndexMCP			IndexPIP			IndexTip			MiddleMCP			MiddlePIP			MiddleTip			RingMCP			RingPIP			RingTip			PinkyMCP			PinkyPIP			PinkyTip			BackHand1			BackHand2			BackHand3	
		X0	Y0	Z0	X1	Y1	Z1	X2	Y2	Z2	X3	Y3	Z3	X4	Y4	Z4	X5	Y5	Z5	X6	Y6	Z6	X7	Y7	Z7	X8	Y8	Z8	X9	Y9	Z9	X10	Y10	Z10	X11	Y11	Z11	X12	Y12	Z12	X13	Y13	Z13	X14	Y14	Z14	X15	Y15	Z15	X16	Y16	Z16	X17	Y17	Z17	X18	Y18	Z18	
306	2.55	-105.734	43.9913	-42.8515	-103.407	32.0087	-75.455	-101.417	33.3916	-106.079	-111.014	38.5842	-126.44	-98.4387	89.9612	-103.55	-94.8488	95.6892	-129.35	-93.8995	102.529	-151.854	-123.5	74.0218	-114.235	-126.397	43.1323	-120.617	-123.291	36.9769	-82.377	-143.598	61.9712	-110.507	-139.344	32.9986	-97.5565	-136.826	40.3541	-67.8524	-156.355	63.4306	-100.71	-150.149	36.5707	-86.5225	-145.385	48.6931	-58.3301	-145.672	90.8914	-59.6139	-150.694	83.2255	-30.624	-119.868	82.6132	-40.0075	
307	2.55833	-100.526	45.8849	-42.574	-97.1104	30.2802	-74.3705	-99.6054	33.9952	-102.877	-111.634	42.121	-126.213	-97.28	93.5726	-101.655	-96.703	98.8506	-126.488	-97.8192	106.413	-148.528	-124.018	75.0921	-114.13	-125.77	42.0544	-118.287	-123.686	38.4481	-83.3866	-138.579	63.6516	-110.302	-136.361	35.3429	-99.2416	-136.708	41.3097	-67.8816	-157.156	61.018	-101.678	-149.758	36.7397	-87.7779	-143.951	51.4082	-56.6935	-148.303	90.639	-58.5274	-149.093	83.6014	-31.3139	-115.985	84.049	-38.592	
308	2.56667	-102.111	49.8069	-45.5266	-96.3861	33.2923	-73.1641	-95.0277	33.1674	-103.329	-108.236	40.2527	-124.658	-96.177	94.5652	-101.762	-91.7637	100.858	-126.902	-95.6995	107.545	-148.803	-121.502	78.0721	-113.462	-120.87	46.2759	-119.631	-123.683	38.2557	-84.7053	-139.721	63.5374	-110.296	-137.126	35.5948	-99.9181	-130.962	42.4249	-69.4199	-158.341	63.3736	-100.795	-149.022	36.8533	-84.5455	-143.784	48.3237	-57.2354	-145.466	91.7367	-58.3902	-152.56	82.808	-31.0532	-119.965	85.3632	-41.0113	
309	2.575	-100.099	51.2646	-45.7464	-98.176	37.8336	-74.0997	-96.1492	37.4388	-104.392	-109.55	45.2853	-127.68	-95.6674	95.1057	-100.531	-94.889	99.9118	-127.031	-93.1715	106.954	-149.855	-116.938	77.7705	-113.456	-116.631	47.6535	-120.169	-122.009	40.2447	-83.7712	-139.444	66.7055	-108.505	-131.919	37.4389	-99.004	-130.893	46.7976	-64.9402	-151.41	62.6341	-101.329	-145.54	38.0448	-86.8563	-139.334	52.2424	-57.5993	-148.806	94.1135	-59.6163	-151.381	82.3046	-28.4546	-118.486	88.4	-42.3959	
310	2.58333	-99.5525	52.0216	-44.5418	-94.0539	36.9785	-74.6888	-96.3594	37.9823	-99.7606	-105.95	42.7657	-124.516	-92.4916	94.4653	-101.267	-92.7256	97.6453	-127.237	-93.4656	101.58	-151.99	-116.545	77.1379	-113.362	-119.425	46.2215	-118.885	-119.252	40.1461	-81.1054	-137.614	66.8127	-108.437	-132.25	37.0349	-99.1618	-132.996	46.1682	-64.298	-151.696	62.507	-101.597	-145.17	38.6	-84.5178	-138.675	52.1122	-58.9103	-148.531	94.19	-59.827	-146.81	84.7599	-30.3162	-116.271	85.0214	-38.2002	
311	2.59167	-101.169	51.4677	-41.7044	-96.6016	38.9547	-74.4296	-91.5454	35.6712	-101.666	-106.067	45.0476	-123.007	-95.1598	93.8209	-104.544	-89.7669	93.6577	-128.315	-85.6993	95.1754	-152.708	-114.358	78.3516	-112.701	-120.335	46.3955	-118.629	-118.201	41.2402	-80.4734	-135.241	67.0786	-108.273	-134.36	36.7595	-97.9286	-131.564	45.1616	-65.0956	-148.705	63.2049	-101.389	-142.403	39.9764	-86.0393	-140.952	53.761	-56.872	-146.946	94.3041	-60.9923	-146.829	84.244	-28.1269	-112.658	89.0932	-42.5401	
312	2.6	-96.1318	52.8733	-43.8943	-95.1959	40.5726	-73.281	-93.5943	39.0088	-99.5579	-104.843	46.1849	-124.602	-90.7881	91.4936	-105.239	-86.7991	87.3371	-131.893	-87.3136	85.9942	-157.769	-118.015	78.8517	-112.905	-114.361	45.2565	-116.486	-117.02	42.6485	-79.6189	-135.254	65.9734	-109.127	-130.737	38.5329	-98.4312	-127.147	47.9012	-65.6113	-149.12	62.6539	-101.898	-142.545	41.1088	-84.2501	-140.835	52.7329	-55.3672	-144.418	95.9523	-62.2479	-149.221	86.1967	-29.4144	-114.945	87.3045	-39.6102	
313	2.60833	-97.0064	51.4026	-40.2624	-95.0331	39.4182	-69.5491	-93.7326	40.7484	-103.407	-101.052	44.9439	-125.466	-90.5713	88.6083	-103.422	-89.1676	83.5027	-129.549	-86.1618	78.0323	-156.153	-112.783	78.2663	-113.235	-119.9	46.1489	-117.631	-117.689	41.9968	-79.8983	-134.057	65.4069	-109.618	-135.575	37.9041	-96.4265	-128.821	48.1948	-64.2438	-150.535	66.8515	-99.6318	-143.009	40.3117	-85.8071	-139.402	54.827	-57.0886	-140.726	98.1368	-62.373	-148.551	89.596	-28.6127	-113.274	89.3577	-40.6401	
314	2.61667	-98.4771	54.3083	-40.0031	-95.1321	41.1269	-72.3396	-91.5883	38.6127	-99.331	-102.835	44.4778	-121.999	-92.0437	89.1104	-103.915	-88.7709	81.7845	-130.735	-84.8588	74.2588	-156.814	-116.765	78.9033	-112.111	-117.226	47.2549	-117.781	-117.471	42.633	-81.1956	-137.921	68.2801	-108.646	-130.54	40.2215	-99.6862	-128.112	46.1234	-66.3787	-148.214	65.3804	-101.601	-145.416	40.7295	-88.2584	-140.458	53.051	-55.9678	-144.71	97.2738	-64.0754	-150.39	88.8448	-29.4268	-117.264	91.1817	-42.8451	
315	2.625	-98.3151	54.3181	-40.3288	-95.7108	40.4754	-71.3319	-94.4387	39.2675	-98.0926	-103.433	46.3445	-126.245	-90.6902	89.0319	-108.939	-85.0398	83.2129	-131.958	-83.1368	76.5817	-156.074	-114.964	76.5814	-115.638	-116.131	45.0498	-116.175	-120.146	43.6642	-80.1706	-135.347	68.0111	-108.775	-132.268	39.162	-96.9275	-131.243	47.0976	-65.4043	-149.599	65.5559	-101.161	-142.441	41.3457	-85.4723	-139.331	57.7498	-56.4888	-141.897	97.0477	-60.5784	-150.88	89.9675	-30.7503	-117.463	92.0042	-40.7639	
316	2.63333	-100.184	55.8458	-41.5871	-96.9093	44.0008	-72.6793	-92.2388	41.264	-102.72	-106.124	46.2416	-120.204	-92.7569	92.7248	-101.782	-89.9596	89.0061	-128.494	-82.3424	82.6949	-156.882	-115.406	79.7774	-112.856	-119.936	48.7795	-116.579	-119.802	46.0011	-78.3073	-137.731	66.6684	-109.495	-133.86	39.4503	-98.133	-132.859	47.1772	-65.1584	-152.819	63.0041	-102.65	-145.476	41.2903	-84.4508	-138.547	55.6095	-58.1064	-144.178	97.4133	-58.2564	-148.724	90.4941	-27.535	-114.309	93.3926	-39.9733	
317	2.64167	-96.6824	56.6616	-41.4654	-95.4616	42.4216	-70.5678	-92.9966	41.6017	-101.152	-106.795	48.3513	-124.313	-96.5878	97.6434	-104.85	-91.7845	95.4953	-127.285	-89.365	93.2709	-157.11	-121.125	83.1068	-111.405	-114.733	49.9964	-115.743	-121.161	45.1995	-81.5879	-138.88	67.8631	-108.331	-131.212	41.8587	-99.1162	-130.335	49.6206	-64.6743	-153.674	66.5607	-100.155	-143.784	41.8254	-83.7589	-138.38	58.304	-54.2952	-148.21	98.9212	-57.0799	-150.296	88.2986	-27.7248	-117.202	92.2241	-40.1495	
318	2.65	-96.6529	58.8532	-41.5294	-94.3915	44.4099	-70.4998	-93.8275	44.2286	-102.053	-108.671	50.0829	-120.617	-96.6326	101.684	-104.326	-88.4767	101.56	-125.87	-89.9367	103.689	-151.58	-116.4	81.5824	-114.77	-119.515	51.9959	-117.409	-118.038	47.6576	-80.5028	-136.015	72.5521	-106.019	-130.672	41.5815	-97.4297	-129.136	52.9443	-62.6793	-154.785	66.1205	-99.1406	-141.915	43.6375	-84.0775	-140.663	56.0982	-56.584	-149.008	97.5618	-56.7352	-151.357	87.472	-27.1819	-118.429	94.8705	-37.3336	
319	2.65833	-96.5032	61.0599	-44.2302	-92.4069	45.1508	-71.6951	-92.742	45.0682	-103.319	-109.448	51.4197	-120.393	-95.2456	105.501	-102.593	-94.1162	106.822	-123.941	-94.0799	111.231	-151.764	-121.539	83.6974	-116.018	-115.782	51.9909	-116.127	-117.213	48.398	-81.4633	-135.933	70.9582	-107.629	-131.041	44.2507	-98.2482	-129.9	51.9685	-63.6379	-151.163	67.8693	-98.1133	-145.796	42.4821	-82.9875	-140.53	58.3914	-53.0191	-148.698	98.4797	-62.1496	-150.574	88.7823	-27.8715	-121.113	96.4922	-38.9941	
320	2.66667	-100.672	62.7069	-40.7076	-94.0358	49.5205	-74.8282	-94.6014	48.4206	-102.903	-109.863	54.883	-124.49	-102.402	106.905	-98.8657	-94.5678	111.953	-123.017	-92.0866	118.807	-150.426	-122.891	86.8859	-111.788	-115.402	54.5973	-116.987	-120.359	51.1214	-80.8488	-136.791	69.9863	-108.591	-131.369	42.6125	-95.2235	-130.239	55.9145	-60.9292	-154.25	67.307	-98.9626	-140.511	44.6226	-83.5027	-139.878	60.9506	-51.7667	-153.269	100.242	-61.0305	-153.71	90.3532	-28.3577	-121.727	95.1342	-37.0414	
321	2.675	-100.62	65.8003	-44.046	-90.831	47.3155	-72.2051	-92.012	47.6922	-100.013	-106.819	52.969	-124.321	-103.726	109.375	-102.653	-96.1538	113.489	-121.494	-97.2194	123.157	-149.686	-119.44	87.109	-114.318	-117.328	58.7142	-118.731	-116.689	52.4059	-80.7306	-136.092	74.3568	-106.719	-127.625	45.2425	-95.4556	-127.595	55.2735	-63.0764	-152.503	70.3896	-97.2071	-141.712	44.6521	-81.628	-137.899	61.923	-52.8625	-152.209	98.9007	-59.0168	-152.562	90.7119	-26.5555	-122.992	97.982	-37.6353	
322	2.68333	-99.9651	63.8653	-39.0784	-92.8284	50.7555	-73.5145	-90.8171	48.1318	-100.46	-109.517	55.3997	-122.865	-104.716	111.023	-103.174	-101.341	115.158	-122.206	-101.822	122.092	-146.633	-118.463	88.5333	-112.777	-118.599	58.491	-117.941	-113.298	54.1783	-78.3166	-139.287	72.7753	-106.444	-129.422	45.888	-96.0976	-127.039	54.979	-65.1987	-150.799	67.6925	-98.2669	-142.754	44.894	-80.1749	-137.438	60.9611	-56.5271	-149.51	98.3479	-57.4397	-153.514	89.1466	-28.397	-123.508	98.425	-41.9764	
323	2.69167	-97.2389	65.7041	-41.8598	-93.1988	50.4625	-70.2334	-94.351	49.3373	-96.6906	-107.996	53.8843	-120.066	-103.781	110.501	-101.145	-96.1155	114.529	-120.99	-98.2636	122.523	-149.464	-120.153	88.2841	-111.725	-114.467	57.748	-116.164	-113.846	55.2193	-77.0342	-135.186	71.6881	-107.731	-131.234	44.8059	-94.8281	-130.011	56.8884	-61.3946	-152.046	68.426	-97.3447	-141.159	45.1086	-81.5564	-139.263	63.3614	-53.0428	-155.261	99.9537	-55.9159	-153.666	90.3126	-29.9066	-118.977	99.2121	-39.5871	
324	2.7	-98.4586	65.8798	-41.1192	-95.6692	51.6683	-69.3966	-93.1994	50.3602	-99.4353	-106.632	53.3377	-119.235	-104.199	108.976	-99.5371	-98.7906	112.562	-124.053	-95.9131	118.448	-148.176	-122.422	89.4175	-109.753	-118.956	58.0323	-117.528	-118.278	51.8397	-80.6593	-134.8	71.9388	-105.867	-128.947	45.7965	-95.3399	-130.32	57.6557	-60.5389	-153.164	70.4079	-96.5155	-143.311	44.2692	-79.9934	-137.737	63.3306	-54.9508	-155.338	100.911	-57.5751	-155.868	90.4397	-27.3587	-123.773	99.6436	-37.0916	
325	2.70833	-97.5939	66.7184	-40.5092	-91.1034	51.0067	-70.893	-92.9326	52.1909	-100.696	-107.126	54.6292	-119.888	-103.124	106.421	-100.08	-94.9932	107.924	-125.655	-93.5315	110.969	-149.627	-121.571	86.765	-112.384	-118.813	56.9643	-116.285	-115.668	52.0033	-79.6192	-139.324	72.5455	-105.507	-131.082	42.8567	-91.1659	-129.316	56.2119	-61.3294	-153.117	68.3705	-97.4796	-140.934	44.3104	-79.4779	-139.601	62.969	-53.8798	-152.783	100.705	-59.122	-155.67	90.8678	-30.6166	-120.842	98.466	-38.7025	
326	2.71667	-102.007	66.2322	-40.1636	-92.4388	51.3375	-70.8457	-93.4891	49.901	-95.0111	-106.586	55.0188	-120.362	-100.698	104.566	-101.99	-92.0467	103.322	-130.043	-88.1021	101.733	-153.194	-120.917	87.042	-110.999	-119.251	53.7691	-113.854	-115.437	49.493	-80.3312	-136.481	72.5612	-106.099	-131.335	44.623	-93.6831	-127.97	56.7743	-62.4333	-151.237	65.1477	-98.1507	-143.195	43.813	-79.2558	-138.643	59.2132	-53.1993	-154.688	101.615	-60.7394	-154.983	94.2882	-29.8502	-123.247	99.6339	-39.13	
327	2.725	-101.12	65.8577	-40.7708	-91.4715	49.1505	-68.8372	-93.8666	50.3496	-98.7533	-103.865	53.556	-119.827	-99.1823	102.117	-101.671	-93.4384	96.8242	-129.173	-89.0616	93.6184	-151.646	-118.64	84.9249	-113.259	-118.372	53.5758	-114.033	-117.916	50.2277	-78.8408	-137.462	69.2164	-106.994	-131.14	43.1772	-94.3489	-129.105	57.1759	-60.6381	-150.839	66.5583	-98.364	-145.267	42.8402	-82.8023	-140.779	61.4006	-53.9105	-153.717	99.8603	-59.0068	-154.616	91.3546	-27.5984	-122.688	99.2102	-39.9124	
328	2.73333	-98.0168	65.7519	-40.9452	-94.8485	50.9326	-69.2176	-94.5871	52.4163	-98.6084	-105.305	54.218	-118.44	-96.0797	100.681	-101.367	-90.9161	94.4035	-131.267	-89.2718	89.9919	-151.911	-120.329	86.1082	-111.458	-120.003	55.336	-116.354	-115.446	51.7698	-78.4321	-138.517	71.8927	-104.974	-132.492	44.1079	-95.5786	-128.693	55.7312	-63.1894	-157.301	66.5466	-98.6096	-144.182	43.8554	-81.5765	-140.134	62.5361	-53.7481	-153.839	101.499	-62.3274	-156.344	93.9274	-30.8772	-119.773	101.363	-39.5124	
329	2.74167	-103.095	66.1068	-39.3017	-94.1909	52.415	-71.2118	-92.2876	51.8007	-99.569	-105.254	54.9984	-121.677	-97.4311	100.535	-106.232	-89.3598	93.636	-128.79	-90.7059	88.7071	-154.573	-120.558	86.4527	-111.132	-120.025	53.49	-114.902	-119.234	53.0606	-75.7362	-142.01	71.1454	-106.315	-131.823	42.8012	-91.3528	-131.9	54.7818	-61.2499	-153.777	64.328	-98.4749	-142.506	44.663	-82.5244	-142.849	58.8764	-53.7569	-155.494	101.777	-61.5662	-156.995	92.6285	-32.2449	-124.209	99.4834	-39.927	
